<svg
    xmlns="http://www.w3.org/2000/svg"
    viewBox="0 0 48 48"
    id="vector">
    <path
        id="path"
        d="M 34.5 29.1 C 34.2 28.3 34 27.4 33.9 26.6 C 33.8 25.8 33.7 24.9 33.7 24 C 33.7 23.1 33.8 22.3 33.9 21.4 C 34 20.6 34.2 19.7 34.5 18.9 C 34.6 18.5 34.7 18.1 34.8 17.6 C 34.9 17.2 34.9 16.7 35 16.3 C 35 15.9 35 15.4 35 15 C 35 14.6 34.9 14.1 34.9 13.7 C 34.8 12.8 34.5 12 34.2 11.2 C 33.9 10.4 33.4 9.6 32.9 8.9 C 32.6 8.5 32.4 8.2 32.1 7.9 C 31.8 7.6 31.5 7.3 31.2 7 C 30.5 6.4 29.8 6 29 5.6 C 28.2 5.2 27.4 4.9 26.6 4.7 C 26.2 4.6 25.7 4.5 25.3 4.5 C 24.9 4.4 24.4 4.4 24 4.4 C 23.1 4.4 22.3 4.5 21.4 4.7 C 20.6 5 19.8 5.3 19 5.7 C 18.6 5.9 18.2 6.1 17.9 6.4 C 17.5 6.6 17.2 6.9 16.9 7.2 C 16.6 7.5 16.3 7.8 16 8.1 C 15.7 8.4 15.4 8.8 15.2 9.1 C 14.7 9.8 14.3 10.6 13.9 11.4 C 13.6 12.2 13.3 13 13.2 13.9 C 13 14.2 13 14.7 13 15.1 C 13 15.5 13 16 13 16.4 C 13.1 17.3 13.2 18.1 13.5 18.9 C 13.8 19.7 14 20.5 14.1 21.4 C 14.2 22.2 14.3 23.1 14.3 24 C 14.3 24.9 14.2 25.7 14.1 26.6 C 14 27.4 13.8 28.3 13.5 29.1 C 13.2 29.9 13.1 30.8 13 31.6 C 13 32 13 32.5 13 32.9 C 13 33.3 13.1 33.8 13.1 34.2 C 13.2 35.1 13.5 35.9 13.8 36.7 C 14.1 37.5 14.6 38.3 15.1 39 C 15.4 39.4 15.6 39.7 15.9 40 C 16.2 40.3 16.5 40.6 16.8 40.9 C 17.1 41.2 17.5 41.4 17.8 41.7 C 18.2 41.9 18.5 42.2 18.9 42.4 C 19.7 42.8 20.5 43.1 21.3 43.3 C 22.1 43.5 23 43.6 23.9 43.6 C 24.3 43.6 24.8 43.6 25.2 43.5 C 25.6 43.4 26.1 43.4 26.5 43.3 C 27.3 43.1 28.2 42.8 28.9 42.4 C 29.7 42 30.4 41.5 31.1 41 C 31.4 40.7 31.7 40.4 32 40.1 C 32.3 39.8 32.6 39.4 32.8 39.1 C 33.3 38.4 33.7 37.6 34.1 36.8 C 34.4 36 34.7 35.2 34.8 34.3 C 34.9 33.9 34.9 33.4 34.9 33 C 34.9 32.6 34.9 32.1 34.9 31.7 C 34.9 31.3 34.8 30.8 34.7 30.4 C 34.7 29.9 34.6 29.5 34.5 29.1 Z"
        fill="#00000000"
        stroke="#000000"
        stroke-width="2"/>
    <path
        id="path_1"
        d="M 23.1 12.4 C 22.5 13.1 21.9 13.6 21.2 14.2 C 20.5 14.7 19.8 15.2 19.1 15.7 C 18.4 16.1 17.6 16.5 16.8 16.8 C 16 17.1 15.2 17.4 14.3 17.5 C 13.9 17.6 13.5 17.7 13 17.8 C 12.6 17.9 12.2 18.1 11.8 18.3 C 11.4 18.5 11 18.7 10.7 18.9 C 10.3 19.1 10 19.4 9.6 19.7 C 8.9 20.2 8.3 20.9 7.8 21.6 C 7.3 22.3 6.8 23 6.5 23.8 C 6.3 24.2 6.2 24.6 6 25 C 5.9 25.4 5.8 25.8 5.7 26.3 C 5.5 27.2 5.5 28 5.5 28.9 C 5.5 29.8 5.7 30.6 5.9 31.5 C 6 31.9 6.2 32.3 6.3 32.7 C 6.5 33.1 6.7 33.5 6.9 33.9 C 7.3 34.7 7.9 35.3 8.5 36 C 9.1 36.6 9.8 37.2 10.5 37.7 C 10.9 37.9 11.2 38.2 11.6 38.3 C 12 38.5 12.4 38.7 12.8 38.8 C 13.2 38.9 13.6 39.1 14 39.2 C 14.4 39.3 14.9 39.4 15.3 39.4 C 16.2 39.5 17 39.5 17.9 39.4 C 18.8 39.3 19.6 39.1 20.4 38.8 C 20.8 38.6 21.2 38.5 21.6 38.3 C 22 38.1 22.4 37.9 22.7 37.6 C 23.4 37.1 24.1 36.5 24.6 35.9 C 25.2 35.2 25.8 34.7 26.5 34.1 C 27.2 33.6 27.9 33.1 28.6 32.6 C 29.3 32.2 30.1 31.8 30.9 31.5 C 31.7 31.2 32.5 30.9 33.4 30.8 C 34.3 30.6 35.1 30.3 35.9 30 C 36.3 29.8 36.7 29.6 37 29.4 C 37.4 29.2 37.7 28.9 38.1 28.6 C 38.8 28.1 39.4 27.4 39.9 26.7 C 40.4 26 40.9 25.3 41.2 24.5 C 41.4 24.1 41.5 23.7 41.7 23.3 C 41.8 22.9 41.9 22.5 42 22 C 42.1 21.6 42.1 21.1 42.2 20.7 C 42.2 20.3 42.2 19.8 42.2 19.4 C 42.2 18.5 42 17.7 41.8 16.8 C 41.6 16 41.2 15.2 40.8 14.4 C 40.6 14 40.3 13.7 40.1 13.3 C 39.8 13 39.6 12.6 39.3 12.3 C 38.7 11.7 38 11.1 37.3 10.6 C 36.6 10 35.8 9.7 35 9.4 C 34.6 9.3 34.2 9.1 33.7 9 C 33.3 8.9 32.8 8.8 32.4 8.8 C 31.5 8.7 30.7 8.7 29.8 8.8 C 28.9 8.9 28.1 9.1 27.3 9.4 C 27 9.6 26.6 9.8 26.2 10 C 25.8 10.2 25.4 10.4 25.1 10.7 C 24.7 10.9 24.4 11.2 24.1 11.5 C 23.7 11.8 23.4 12.1 23.1 12.4 Z"
        fill="#00000000"
        stroke="#000000"
        stroke-width="2"/>
    <path
        id="path_2"
        d="M 14.4 30.5 C 15.3 30.7 16.1 30.9 16.9 31.2 C 17.7 31.5 18.5 31.9 19.2 32.3 C 19.9 32.7 20.6 33.2 21.3 33.8 C 22 34.3 22.6 34.9 23.2 35.6 C 23.5 35.9 23.8 36.2 24.1 36.5 C 24.4 36.8 24.8 37.1 25.1 37.3 C 25.5 37.5 25.8 37.8 26.2 38 C 26.6 38.2 27 38.4 27.4 38.5 C 28.2 38.8 29 39 29.9 39.1 C 30.8 39.2 31.6 39.2 32.5 39.1 C 32.9 39.1 33.4 39 33.8 38.9 C 34.2 38.8 34.6 38.7 35.1 38.5 C 35.9 38.2 36.7 37.8 37.4 37.4 C 38.1 36.9 38.8 36.4 39.4 35.7 C 39.7 35.4 40 35.1 40.2 34.7 C 40.5 34.4 40.7 34 40.9 33.6 C 41.3 32.8 41.7 32 41.9 31.2 C 42.1 30.4 42.3 29.5 42.3 28.6 C 42.3 28.2 42.3 27.7 42.3 27.3 C 42.3 26.9 42.2 26.4 42.1 26 C 42 25.6 41.9 25.2 41.8 24.7 C 41.7 24.3 41.5 23.9 41.3 23.5 C 40.9 22.7 40.5 22 40 21.3 C 39.5 20.6 38.9 20 38.2 19.4 C 37.9 19.1 37.5 18.9 37.1 18.6 C 36.7 18.4 36.3 18.2 36 18 C 35.2 17.6 34.4 17.4 33.5 17.2 C 32.6 17 31.8 16.8 31 16.5 C 30.2 16.2 29.4 15.8 28.7 15.4 C 28 15 27.3 14.5 26.6 13.9 C 25.9 13.4 25.3 12.8 24.7 12.1 C 24.1 11.5 23.5 10.9 22.8 10.4 C 22.4 10.2 22.1 9.9 21.7 9.7 C 21.3 9.5 20.9 9.3 20.5 9.2 C 19.7 8.9 18.8 8.7 18 8.6 C 17.1 8.5 16.3 8.5 15.4 8.6 C 15 8.6 14.5 8.7 14.1 8.8 C 13.7 8.9 13.3 9 12.9 9.2 C 12.5 9.3 12.1 9.5 11.7 9.7 C 11.3 9.9 10.9 10.1 10.6 10.3 C 9.9 10.8 9.2 11.3 8.6 12 C 8 12.6 7.5 13.3 7 14.1 C 6.8 14.5 6.6 14.9 6.4 15.3 C 6.2 15.7 6.1 16.1 6 16.5 C 5.8 17.3 5.6 18.2 5.6 19.1 C 5.6 20 5.6 20.8 5.8 21.7 C 5.9 22.2 6 22.6 6.1 23 C 6.2 23.4 6.4 23.8 6.6 24.2 C 7 25 7.4 25.7 7.9 26.4 C 8.4 27.1 9 27.7 9.7 28.3 C 10 28.6 10.4 28.8 10.8 29.1 C 11.2 29.3 11.5 29.5 11.9 29.7 C 12.3 29.9 12.7 30 13.1 30.2 C 13.5 30.3 14 30.5 14.4 30.5 Z"
        fill="#00000000"
        stroke="#000000"
        stroke-width="2"/>
</svg>
