<svg id="Layer_1" data-name="Layer 1" xmlns="http://www.w3.org/2000/svg" viewBox="0 0 80.17 75.42"><title>leakage</title><path d="M51.93,69.23c-2.81,0-5.45,0-8.09,0a3.63,3.63,0,0,0-1.57.44,14.11,14.11,0,0,1-14.35,0,3.84,3.84,0,0,0-1.7-.45c-2.6,0-5.2,0-8,0V68c0-2.24,0-4.47,0-6.71,0-1.44.1-2.81-.95-4.11s-.6-3.08.29-4.3a3.09,3.09,0,0,0,.63-1.82,15.22,15.22,0,0,1,2.23-9.52A16.65,16.65,0,0,1,34,33.8a17,17,0,0,1,15.7,7.7,12.39,12.39,0,0,1,2.22,7.31c0,1.7-.18,3.35,1,4.92.91,1.15.5,2.68-.34,4A4.23,4.23,0,0,0,52,59.81C51.89,62.89,51.93,66,51.93,69.23ZM19,51.77l2.58-.62c3.17-.73,6.41-1.27,9.51-2.23,5.18-1.61,9.38-4.33,10-10.39,0-.22.27-.43.41-.64a1.4,1.4,0,0,1,.35,1,11.15,11.15,0,0,1-4.08,7.48C34.4,49,30.39,50.24,26.26,51.14c-2.12.46-4.3.72-6.4,1.29a3,3,0,0,0-2.37,3.13,3.69,3.69,0,0,0,2.93,3.17l1.37.29c1.14,7.11,6.39,11.59,13.12,11.85A12.44,12.44,0,0,0,43,68.26,13.61,13.61,0,0,0,48.35,59c.52-.1,1-.17,1.4-.26a3.46,3.46,0,0,0,2.63-4.53c-.52-1.32-1.74-1.7-3-2.07-.41-.12-.81-.3-1.21-.45l.14-.51,2.81.58c.85-8.08-3.87-13.14-7.57-14.69a13.48,13.48,0,0,1-1.13,7c-.15.32-.5.54-.76.81l-.31-.28c.14-.33.3-.65.43-1a11.68,11.68,0,0,0,.91-6.51,1.9,1.9,0,0,0-1-1.17,16.49,16.49,0,0,0-9.59-1.2C25.47,35.8,17.88,41.76,19,51.77ZM44,68.39h7.09v-9.5c-.85.53-1.94.81-2.1,1.37A15.8,15.8,0,0,1,44,68.39Zm-18.25.06.32-.36A6.91,6.91,0,0,1,25,67.36a11.9,11.9,0,0,1-3.46-6A2.33,2.33,0,0,0,19,59.26v9.19Z"/><path d="M52.8,19.86,64.64,8.23l-.11-.29H53.76l-.1-.36c.26-.13.51-.37.77-.37,3.86,0,7.72,0,11.92,0a10.46,10.46,0,0,1-.89,1.27q-4.86,4.89-9.75,9.75a5,5,0,0,0-1,1c3.84.2,7.62.17,11.38.35C65.46,20.32,54.78,20.49,52.8,19.86Z"/><path d="M45.11,20.73c-2.64,0-5.27,0-7.9,0-.06,0-.12-.26-.22-.52h9.74l.24.3-8.81,8.84c3,.31,5.83-.16,8.61.28l0,.49H36.33l9.05-8.86Z"/><path d="M36,38.43l-4.61,3.86.37.52h4c-.38.82-3.27,1.07-5.92.53l4.57-4.66h-4c.35-.8,2.68-1,5.29-.62Z"/><path d="M28,58a5.4,5.4,0,0,1-5.3-4,3.33,3.33,0,0,1,.13-1.11,3.46,3.46,0,0,1,.59.82,4.91,4.91,0,0,0,4.68,3.57c2.18,0,3.8-1.35,4.56-3.67.09-.28.41-.48.62-.71a3.08,3.08,0,0,1,.1.94A5.29,5.29,0,0,1,28,58Z"/><path d="M36.45,52.78A9.06,9.06,0,0,1,37,53.87c1.16,3.28,4.73,4.49,7.41,2.36a10.68,10.68,0,0,0,1.72-2.66,5.28,5.28,0,0,1,.66-.68,2.47,2.47,0,0,1,.11.83,5.52,5.52,0,0,1-10.7.31,5.34,5.34,0,0,1-.1-1.13Z"/><path d="M36.78,63a1.8,1.8,0,0,1-1.72,1.81A1.83,1.83,0,0,1,33.36,63,1.75,1.75,0,0,1,35,61.24,1.73,1.73,0,0,1,36.78,63Zm-.32,0c-.61-.44-1-.93-1.3-.88s-.71.55-1.06.86c.34.32.65.83,1,.9S35.83,63.49,36.46,63Z"/><path d="M44.37,39.64c1.05,1.1.37,7-1.06,8.36C43.67,45.14,44,42.43,44.37,39.64Z"/></svg>