<svg id="Layer_1" data-name="Layer 1" xmlns="http://www.w3.org/2000/svg" viewBox="0 0 80.17 75.42"><title>leakage</title><path d="M44.76,51.44c-3,4.57-4.48,9.88-6.53,14.91l-.44-.12A8.57,8.57,0,0,1,38,65c1.25-4.38,2.53-8.75,3.78-13.13A8.83,8.83,0,0,0,42,50.58l-.31-.14a30.2,30.2,0,0,0-1.66,3C38.48,57,37,60.6,35.56,64.18c-.18.42-.44.81-.66,1.21l-.43-.19,5-15L39,50c-.51.9-1.08,1.76-1.52,2.69-1.9,4-3.73,8.07-5.65,12.08a27,27,0,0,1-2.25,3.71,1.36,1.36,0,0,1-1.23.42,1.48,1.48,0,0,1-.58-1.17,13,13,0,0,1,1.37-5.52l.49.08q-.66,2.9-1.3,5.79l.49.17c2-2.13,2.61-5,4-7.78a10.1,10.1,0,0,0-2-.47c-2.4-.06-4.8,0-7.2,0-.8,0-1.07-.27-1.06-1.06,0-2.89.05-5.78,0-8.67A3.31,3.31,0,0,0,22,48.5,3.76,3.76,0,0,1,22,43.87a3.09,3.09,0,0,0,.69-2.33A14.74,14.74,0,0,1,25.12,32a17,17,0,0,1,14-7.49c6.7-.26,13.5,3.86,16.13,9.74a16.22,16.22,0,0,1,1.09,7.38,2.85,2.85,0,0,0,.71,2.2,4,4,0,0,1,0,4.65,4.45,4.45,0,0,0-.69,2.2c-.08,3,0,6.09,0,9.3H51.66c-1.26,0-2.52,0-3.78,0A1.81,1.81,0,0,0,46,61.42c-.72,2.51-1.56,5-2.38,7.48A9.83,9.83,0,0,1,43,70.18l-.45-.08a8.6,8.6,0,0,1,.17-1.24c1-3.23,2-6.45,3-9.7A9,9,0,0,0,46,56.35,15.86,15.86,0,0,0,43.14,62c-.68,1.95-1.39,3.89-2.09,5.83l-.53-.13a8.23,8.23,0,0,1,.18-1.24c1.26-3.91,2.57-7.81,3.8-11.73a30.21,30.21,0,0,0,.67-3.17Zm1.78,8.1a13.56,13.56,0,0,0,6.24-9.81l1.2-.26a3.63,3.63,0,0,0,3.08-3.27c.08-1.49-.82-2.55-2.68-3.16l-2.05-.7c1.38-.82,2.26.2,3.22.14.93-8-3.64-12.93-7.51-14.75a9.33,9.33,0,0,1,0,1.59c-.34,1.85-.71,3.7-1.15,5.53-.07.29-.51.49-.78.74l-.28-.29a14,14,0,0,0,1.51-6.66,2,2,0,0,0-1.47-2.18c-6.22-2.3-12-1.47-17.12,2.67-4.23,3.41-5.75,8-5.27,13.36.94-.22,1.8-.43,2.66-.61,2.41-.5,4.86-.84,7.22-1.51A39.47,39.47,0,0,0,39.54,38c3.82-1.85,5.75-5.07,6.35-9.28a1.85,1.85,0,0,1,.4,1.29A10.84,10.84,0,0,1,42,37.34c-3.77,2.68-8.1,3.94-12.58,4.77-1.71.32-3.44.56-5.1,1a2.73,2.73,0,0,0-2.25,3.14,3.28,3.28,0,0,0,3,3.16A1.57,1.57,0,0,1,26.56,51a13,13,0,0,0,6.52,8.86c.94-2,1.78-3.83,2.74-5.64s1.86-3.32,2.87-4.92c.18-.29.72-.36,1.09-.53a4.44,4.44,0,0,1,.24,1.1,20.49,20.49,0,0,1-.26,2.07,21.54,21.54,0,0,1,1.46-1.84,3.84,3.84,0,0,1,1.11-.55,3.12,3.12,0,0,1,.32,1.1c-.09,1.12-.27,2.23-.44,3.45a23.66,23.66,0,0,1,1.69-2.59c.33-.39,1-.52,1.48-.77a4.56,4.56,0,0,1,.38,1.56c-.12,1.16-.41,2.29-.63,3.46,1.28-.47,1.67-.24,1.66,1.08C46.78,57.63,46.64,58.47,46.54,59.54Zm-16-.41c-2.19-2-3.91-4.23-4.48-7a2.42,2.42,0,0,0-2.6-2.16v9.19Zm17.93,0h7.06V49.68c-.82.44-1.94.68-2.06,1.17A15.54,15.54,0,0,1,48.48,59.1Z"/><path d="M25.94,3.17a3.87,3.87,0,0,1,.57,1q1.92,7.86,3.8,15.74A8.76,8.76,0,0,1,30.44,21l-.38.14a6.94,6.94,0,0,1-.55-1.22c-1.09-4.47-2.15-8.93-3.22-13.4l-.75-3.2Z"/><path d="M73.72,24.33c-.29,1-13.54,8.64-15.72,9a4.65,4.65,0,0,1,.87-.85c3.17-1.79,6.35-3.54,9.53-5.3,1.34-.75,2.68-1.51,4-2.25C72.76,24.72,73.13,24.59,73.72,24.33Z"/><path d="M50.9,25.1A6,6,0,0,1,51.4,24q4.2-6.24,8.46-12.46c.18-.26.58-.38.88-.56a2.64,2.64,0,0,1-.2.92q-4.3,6.39-8.64,12.77a6.27,6.27,0,0,0-.43.86Z"/><path d="M61.73,48.74c4.08.62,14.78,4,15.31,5C72,52.32,67.12,51,62.29,49.55,62.11,49.5,62,49.16,61.73,48.74Z"/><path d="M19.13,39.23c-4.58-2.93-9.08-6-13.58-9l.08-.31c.25,0,.56-.05.74.07q6.42,4.27,12.79,8.58a1.34,1.34,0,0,1,.23.29Z"/><path d="M6.26,41.94l11.52,5.65,0,.38c-.27,0-.6.16-.8.06-3.49-1.68-7-3.4-10.44-5.11l-.64-.32Z"/><path d="M5.63,53.2c1.08-.81,11.93-.7,12.69,0Z"/><path d="M20.26,25.35,14,16.53l.31-.33c.26.15.61.23.77.46,1.8,2.48,3.58,5,5.35,7.5a3.68,3.68,0,0,1,.33.95Z"/><path d="M60.88,41.77c.19-.21.34-.52.58-.61,3-1.09,6-2.14,9-3.19a1.94,1.94,0,0,1,.74.07c-.16.22-.28.56-.49.64-3.16,1.16-6.33,2.28-9.5,3.4Z"/><path d="M40.91,20.25c.53-1.83,1-3.39,1.45-4.94a.53.53,0,0,1,.46-.25c.11,0,.31.3.27.41-.4,1.47-.83,2.94-1.29,4.39C41.76,20,41.44,20,40.91,20.25Z"/><path d="M41,46.79c1.11-1.22,5.92-3.34,6.91-2.85l-2.24,1.12-2,1,0,.32h6.43C49.27,47.07,42.81,47.23,41,46.79Z"/><path d="M27.74,46.87c1.12-1,2.22-.49,3.19-.58s2.11,0,3.25-.2L30,43.92c1-.46,6,1.81,6.89,2.95Z"/><path d="M47.79,38.59c.33-2.74.66-5.48,1-8.36C49.81,31.78,49.24,37,47.79,38.59Z"/><path d="M35.19,43.07l4-2c-.26,1.15-2.57,2.42-3.82,2.41Z"/><path d="M45.15,41.76a11,11,0,0,1-4,1.8L41,43.08l3.94-1.91Z"/></svg>