<svg id="Layer_1" data-name="Layer 1" xmlns="http://www.w3.org/2000/svg" viewBox="0 0 80.17 75.42"><title>leakage</title><path d="M58,63.41c.19-1.37.39-2.75.56-4.13a59.16,59.16,0,0,0,.64-5.92c.08-5.44.21-10.9,0-16.34-.19-4.11-.93-8.19-1.39-12.3-.12-1.07-1-.84-1.42-1.12l-1,2-1.84-1.05-.92,2-2-1.26c.14-.12.07-.09,0,0-.23.56-.45,1.13-.68,1.7-.48-.43-1.2-.77-1.4-1.31-.93-2.44-1.71-4.94-2.56-7.42-.33-1-.69-1.91-1-2.86l-.61.15c.26,2,.5,4,.8,6a8.42,8.42,0,0,0,2.65,5.31,3.22,3.22,0,0,1,.59,1.77,118.63,118.63,0,0,1,1,23.22,46.94,46.94,0,0,1-1.9,12.32c-.12.37-.32.72-.47,1.07l-.39-.08a2.74,2.74,0,0,1,0-.81A58.19,58.19,0,0,0,48.74,48c0-4.1-.05-8.21-.27-12.31-.14-2.62-.61-5.22-.95-7.83a1.14,1.14,0,0,0-.34-.6,8.59,8.59,0,0,1-2.6-4.82c-.07-.31-.5-.62-.83-.75s-.72,0-1.08,0a2.89,2.89,0,0,0-3.34,1.7,6.54,6.54,0,0,1-7.75,2.74c-3.27-1.07-5-3.7-4.8-7.41a7.06,7.06,0,0,1,5.28-6,6.91,6.91,0,0,1,8,4.2A1.44,1.44,0,0,0,41.82,18a19.44,19.44,0,0,1,2,0,18.49,18.49,0,0,1,0-2.37c0-.37.39-1,.64-1a1.43,1.43,0,0,1,1.18.56A33.35,33.35,0,0,1,47,18.71c.71,2.06,1.37,4.13,2.08,6.18a6.28,6.28,0,0,0,.56,1l.37-.09-.93-7.25.31-.16a4.34,4.34,0,0,1,.54.92c.56,1.77,1.06,3.55,1.62,5.31a6.21,6.21,0,0,0,.62,1.13l.44-.08c-.22-2.51-.44-5-.65-7.54l.44-.1c.23.75.46,1.5.68,2.25s.42,1.56.71,2.31a8.88,8.88,0,0,0,1.23,2.17c.72-2.57-.56-5-.4-7.49,1.22,1.72.85,4.08,2.34,5.63l.47-.1c-.24-1.8-.47-3.61-.72-5.41,0-.2-.11-.39-.15-.59-.34-1.62-.74-1.93-2.32-1.69-2,.29-3.91.63-5.87.91a11.15,11.15,0,0,1-1.53,0l-.1-.31a3.07,3.07,0,0,1,.8-.38c2.36-.35,4.72-.7,7.08-1,1.55-.19,2.25.34,2.62,1.83.14.54.24,1.1.4,1.83a24.42,24.42,0,0,0,2.83,0c.29,0,.63-.52.76-.87a7,7,0,0,1,10.55-3.27,6.88,6.88,0,0,1,2.59,7.84,6.81,6.81,0,0,1-6.66,4.71,6.37,6.37,0,0,1-5.94-3.54,1.87,1.87,0,0,0-2.15-1.2c-.44.05-.89,0-1.64,0a118.73,118.73,0,0,1,2.2,21,90.4,90.4,0,0,1-1.58,20.84ZM39.79,19.51A6.15,6.15,0,0,0,27.5,19.4a6.15,6.15,0,1,0,12.29.11Zm34.13,0a6.11,6.11,0,0,0-12.22-.13,6.11,6.11,0,1,0,12.22.13ZM44.27,20.83c-.39-.74.39-1.8-.89-1.94a26.36,26.36,0,0,0-2.67,0l-.24,1.95Zm13.87,0H61L60.87,19h-3Z"/><path d="M43.14,63.94c-2.72,0-5.32,0-7.91,0a3.48,3.48,0,0,0-1.59.41,13.93,13.93,0,0,1-14.34,0A3.44,3.44,0,0,0,17.84,64c-2.2-.05-4.4-.08-6.6,0-1.15.05-1.56-.27-1.52-1.47.08-2.73,0-5.45,0-8.18a2.72,2.72,0,0,0-.42-1.45c-1.24-1.88-1.19-3.35.11-5.25a3.15,3.15,0,0,0,.32-1.72c-.05-3.3.4-6.48,2.29-9.29A16.69,16.69,0,0,1,24.69,29,17.09,17.09,0,0,1,39,34.14a13.18,13.18,0,0,1,4.12,9.94c0,1.54-.15,3,1,4.45s.53,2.92-.44,4.29a2.63,2.63,0,0,0-.49,1.39C43.12,57.38,43.14,60.56,43.14,63.94ZM10.72,46.65c1.23-.27,2.36-.62,3.51-.76a36.83,36.83,0,0,0,12-3.52,10.3,10.3,0,0,0,6.17-8.67c0-.27.26-.52.55-1.06a5.61,5.61,0,0,1,.19,1,10,10,0,0,1-3.76,7.61c-3.8,3-8.36,4.27-13,5.14-1.66.3-3.34.56-5,1a2.72,2.72,0,0,0-2.2,2.83,3.48,3.48,0,0,0,3.25,3.45,1.05,1.05,0,0,1,1.15,1.06A13,13,0,0,0,26.5,65.56,13,13,0,0,0,39.43,54.69c.15-.79.4-1,1.13-1a3.6,3.6,0,0,0,3.22-3.14c.17-1.53-.65-2.6-2.52-3.24l-1.78-.59,0-.45c.43,0,.86,0,1.28.09s1,.26,1.57.4c.87-8.22-3.94-13.08-7.47-14.6.13,4.1-.57,7-2,7.82A4,4,0,0,1,33,39a13.41,13.41,0,0,0,1.11-6.52,1.32,1.32,0,0,0-.89-1.39,16.15,16.15,0,0,0-9.15-1.27C16.79,30.92,9.49,36.85,10.72,46.65ZM42.37,54l-2.1.58a14.74,14.74,0,0,1-4.81,8.57h6.91ZM17.61,63.16a13.1,13.1,0,0,1-4.45-6.85c-.32-1.39-.89-2.07-2.24-2.21a.75.75,0,0,0-.21,0v9Z"/><path d="M21.23,55.16c3.39,0,6.72,0,10,0,.21,0,.58.43.59.68.08,2.16-2.92,4.67-5.44,4.59C23.48,60.36,21,57.94,21.23,55.16Zm.83.87c.49,2.46,2.57,3.82,5.22,3.52,1.87-.21,3.55-1.88,3.51-3.52Z"/><path d="M23.78,48c.66,1.25,0,3.09-1.3,4.14a5.54,5.54,0,0,1-7.16.06c-1.38-1.1-2.1-2.87-1.45-4.15.8,2.6,2,4.62,4.92,4.63S23,50.81,23.78,48Z"/><path d="M37.8,48.23c.58.86.23,2.17-.79,3.38a5.59,5.59,0,0,1-6.3,1.5,4.87,4.87,0,0,1-3.08-5c.28.36.51.53.59.76.88,2.57,2.33,3.82,4.49,3.84,2.34,0,3.81-1.14,4.75-3.73C37.55,48.75,37.67,48.53,37.8,48.23Z"/><path d="M34.61,43a9.75,9.75,0,0,1,0-1.23c.34-2.39.71-4.77,1.1-7.36C36.66,36.66,36,41.74,34.61,43Z"/></svg>