<svg id="Layer_1" data-name="Layer 1" xmlns="http://www.w3.org/2000/svg" viewBox="0 0 80.17 75.42"><title>leakage</title><path d="M46.45,54.52c.79,1.74-.65,2.41-1,3.2l2.87.26-.54,2.45c.23.15,1,.4,1.09.77a2.25,2.25,0,0,1-.59,1.72c-1.7,1.68-3.5,3.26-5.28,4.86-.09.09-.3,0-.8.12a10.87,10.87,0,0,1,.77-1c1.53-1.45,3.09-2.87,4.61-4.33a7.85,7.85,0,0,0,.87-1.32c-2.84.42-4.33,2.67-6.6,3.5,1.86-2.24,4.5-3.68,6.11-6.53-3.24.51-5.17,2.72-7.48,4.24l-.28-.22a4.9,4.9,0,0,1,.55-.91c1.36-1.39,2.77-2.75,4.13-4.15a4.06,4.06,0,0,0,1-1.79,6,6,0,0,0-1.35.47C42.75,57,41,58.25,39.2,59.44a11.84,11.84,0,0,1-1.17.62l-.19-.34L49.23,49.4,49,49c-1.08.66-2.2,1.25-3.22,2-3.54,2.52-7,5.09-10.57,7.6a13,13,0,0,1-2.74,1.53,1.74,1.74,0,0,1-1.5-.27c-.21-.19-.1-1.06.16-1.39,1-1.27,2.1-2.46,3.38-3.92A16.9,16.9,0,0,0,31.68,54c-2.15-.08-4.31-.06-6.47,0-.86,0-1.13-.27-1.11-1.12q.06-4.16,0-8.3a3.06,3.06,0,0,0-.5-1.54,4.08,4.08,0,0,1,.18-5,2.47,2.47,0,0,0,.32-1.46,15.07,15.07,0,0,1,2.55-9.8,16.11,16.11,0,0,1,12.27-7,16.5,16.5,0,0,1,15.87,7.67,13.64,13.64,0,0,1,2,8.6,3.22,3.22,0,0,0,.75,2.55c.93,1,.68,2.94-.18,4.34a3.6,3.6,0,0,0-.54,1.77q-.09,4.08,0,8.18c0,.85-.25,1.13-1.11,1.11-2.16,0-4.32-.07-6.47,0A17.73,17.73,0,0,0,46.45,54.52ZM24.94,37c1.12-.24,2.12-.53,3.15-.68a39.55,39.55,0,0,0,12-3.48,10.14,10.14,0,0,0,6-7.58c.1-.56.25-1.11.38-1.66h.38A4.33,4.33,0,0,1,47,24.81a10.38,10.38,0,0,1-3.61,6.81c-3.52,2.85-7.76,4.05-12.09,5-1.93.41-3.88.72-5.78,1.22a2.41,2.41,0,0,0-1.95,2.47,3.41,3.41,0,0,0,3.18,3.61c.71.1.9.31,1,1A13,13,0,0,0,34,53.65a1.46,1.46,0,0,0,1.86.12c.83-.59,1.6-.23,2.19.54l.58.74c.52-.38.93-.7,1.37-1,2.91-1.92,5.81-3.84,8.75-5.7.34-.22.94,0,1.42,0-.13.44-.24.88-.41,1.3a1.45,1.45,0,0,1-.4.46l-4.17,4.19a1.55,1.55,0,0,0,1-.15,12.5,12.5,0,0,0,6.59-7.73c.41-1.46.68-2.63,2.56-2.91,1.42-.21,2.07-1.65,2-3.21,0-1.31-.62-2-2.14-2.6-.49-.18-1-.25-1.5-.43-.21-.07-.36-.31-.53-.48l.14-.29L56,37c1-5.61-2.31-12.17-7.09-14.18-.73,6.21-.83,6.62-2.07,7.56a2.23,2.23,0,0,1,.14-1.07A12.94,12.94,0,0,0,48,23.4a1.78,1.78,0,0,0-1.28-1.79,16.79,16.79,0,0,0-9.65-.9A14.81,14.81,0,0,0,24.94,37Zm6.92,16.14A14.31,14.31,0,0,1,27,44.76l-2-.55v9Zm17.32-.07H56V44c-.82.47-1.9.72-2,1.22A15.29,15.29,0,0,1,49.18,53.1ZM37.83,55.62C37,54.06,36.46,54,35.3,55.06c-.82.78-1.65,1.57-2.42,2.4-.55.59-1,1.26-1.5,1.89l.26.24C34.07,58.9,35.76,57,37.83,55.62Z"/><path d="M47.54,38.82c-3.26-.26-4.9,1.52-5.69,4.59-.62-1.44,0-2.91,1.47-4.19a5.4,5.4,0,0,1,6.14-.42,4.32,4.32,0,0,1,2.21,4.6l-1.3-2.84c-.45.58-.72,1.24-1.2,1.46a2.19,2.19,0,0,1-1.7-.07C46.41,41.4,46.46,40.24,47.54,38.82Zm2.22,1.81c-.68-.47-1-.92-1.34-.89a1.25,1.25,0,0,0-.87.81c0,.29.46.81.79.87S49,41.06,49.76,40.63Z"/><path d="M34.92,38.89c-3.42-.45-5.23,1.23-6,4.49-.68-1.51.16-3.3,1.83-4.45a5.38,5.38,0,0,1,6.87.77c1.16,1.21,1.59,2.63.94,3.51l-.8-2c-1.1,1.12-2,1.36-2.83.74S34.05,40.46,34.92,38.89Zm2.39,1.73c-.69-.48-1.05-.93-1.35-.89a1.22,1.22,0,0,0-.84.84c0,.28.47.79.8.85S36.6,41.05,37.31,40.62Z"/><path d="M49.42,25.44c1.09.62.58,6.25-1,8.05C48.8,30.65,49.11,28,49.42,25.44Z"/><path d="M48,37c1.34-.62,4.36.48,4.56,1.56Z"/><path d="M39.32,38.58,35,37.07C36.33,36.42,39.32,37.59,39.32,38.58Z"/><path d="M36.76,49.44c.81-.76,1.56-.79,2.71,0Z"/></svg>