<svg xmlns="http://www.w3.org/2000/svg" viewBox="0 0 133.87 142.52"><defs><style>.cls-1,.cls-4{fill:#fff;stroke:#9e8c99;stroke-miterlimit:10;}.cls-1{stroke-width:3px;}.cls-2{fill:#dbd1d1;}.cls-3{fill:#9e8c99;}.cls-4{stroke-width:2px;}.cls-5{fill:#c69ebd;}</style></defs><g id="Layer_2" data-name="Layer 2"><g id="Layer_1-2" data-name="Layer 1"><path class="cls-1" d="M67.11,38.05h.39L78,11.1a64.86,64.86,0,0,0-22.12,0l10.5,26.95Z"/><path class="cls-2" d="M67.62,62.42a14,14,0,0,1,7.59-2.7c-4.22-4.59-12.62-4.41-16.14,0a13.7,13.7,0,0,1,7.56,2.67A.74.74,0,0,0,67.62,62.42Z"/><path class="cls-2" d="M68.84,64.52a18.19,18.19,0,0,0,8.84,5.2c1,.28,1.32-.11,1.35-1a12.72,12.72,0,0,0-1.6-6.44c-.46-.85-1.08-1.34-1.92-1.16A12,12,0,0,0,69,63.06C68.28,63.55,68.24,63.88,68.84,64.52Z"/><path class="cls-2" d="M80.23,69.63a.82.82,0,0,0,.49,1A14,14,0,0,1,86.86,76c.16-.19.27-.29.3-.4,1.61-5-2.4-12.33-7.45-13.72-.26-.07-.58-.18-.76.07s0,.43.1.62A12.69,12.69,0,0,1,80.23,69.63Z"/><path class="cls-2" d="M77.81,86.12a18,18,0,0,0-9.06,5.34c-.57.61-.42.9.23,1.34a13,13,0,0,0,6.19,2c.72,0,1.29.08,1.71-.53A12.2,12.2,0,0,0,79,87C79,86.23,78.71,85.9,77.81,86.12Z"/><path class="cls-2" d="M80.7,83.8a12.1,12.1,0,0,0,5.21-4.88,1.64,1.64,0,0,0,0-1.79,12,12,0,0,0-5-4.91,6.25,6.25,0,0,0-.72-.31c-.54,0-.55.46-.64.79a17.76,17.76,0,0,0,.07,10.63C79.83,84,80.06,84.13,80.7,83.8Z"/><path class="cls-2" d="M66.79,93.33a14.41,14.41,0,0,1-7.63,2.82c3.68,4.25,12.15,4.39,15.76,0a14.52,14.52,0,0,1-7.51-2.78A.47.47,0,0,0,66.79,93.33Z"/><path class="cls-2" d="M56.56,84.81a18.44,18.44,0,0,1,10,5.9c.38.43.65.51,1.08,0a18.75,18.75,0,0,1,10.1-6c.38-.08.88-.16.73-.77-.06-.18-.12-.35-.17-.53a18.88,18.88,0,0,1,0-11.21c.24-.77.06-1-.7-1.22a18.74,18.74,0,0,1-9.89-5.81c-.41-.46-.75-.58-1.22-.06a18.65,18.65,0,0,1-9.9,5.8c-.73.17-1,.45-.71,1.23a18.79,18.79,0,0,1,0,11.35C55.63,84.34,55.85,84.65,56.56,84.81Z"/><path class="cls-2" d="M65.33,91.31a17.82,17.82,0,0,0-8.34-5c-1.68-.48-1.85-.31-1.84,1.81A13.59,13.59,0,0,0,57.08,94a1.64,1.64,0,0,0,1.58.84,13.17,13.17,0,0,0,6.49-1.93C65.94,92.36,66,92,65.33,91.31Z"/><path class="cls-2" d="M83,84c-2,.92-3,2-2.73,4.39.23,2-.66,3.89-1.63,5.77,5.8-1,10.21-8.49,8.3-14.13C85.71,81.63,84.62,83.18,83,84Z"/><path class="cls-2" d="M56.39,69.68a17.77,17.77,0,0,0,9.06-5.33c.54-.57.42-.84-.18-1.24a11.59,11.59,0,0,0-6.26-2c-.61.06-1.37-.21-1.88.58a12.63,12.63,0,0,0-2,7C55.17,69.53,55.51,69.89,56.39,69.68Z"/><path class="cls-3" d="M67.5,38.05H66.37l.56,1.45Z"/><path class="cls-1" d="M100.87,19.63l-24,18.69c5.5.34,9.19.94,9.19,1.64,0,1-8.49,1.9-19,1.9a36,36,0,1,1-36,36,36,36,0,0,1,36-36c-10.47,0-19-.85-19-1.9,0-.68,3.55-1.28,8.86-1.61L33,19.63a65.44,65.44,0,1,0,67.87,0Z"/><path class="cls-4" d="M31.12,77.86a36,36,0,1,0,36-36A36,36,0,0,0,31.12,77.86Zm36-32.72A32.72,32.72,0,1,1,34.4,77.86,32.72,32.72,0,0,1,67.11,45.14Z"/><path class="cls-2" d="M53.49,83.83c.65.35.89.13,1.07-.48a17.67,17.67,0,0,0,.85-5.4,18.08,18.08,0,0,0-.79-5.41c-.19-.66-.41-.93-1.12-.54a12.75,12.75,0,0,0-5.25,5.09,1.57,1.57,0,0,0,0,1.67A12.23,12.23,0,0,0,53.49,83.83Z"/><path class="cls-2" d="M54,86.1a.68.68,0,0,0-.43-.77A15,15,0,0,1,47.33,80c-2.19,6.22,3.16,13.44,8.14,14A14.21,14.21,0,0,1,54,86.1Z"/><path class="cls-2" d="M67.11,110.57A32.72,32.72,0,1,0,34.4,77.86,32.72,32.72,0,0,0,67.11,110.57ZM55.63,60.18a3.51,3.51,0,0,0,1.86-1,13.11,13.11,0,0,1,19.2,0,3.33,3.33,0,0,0,1.75,1,13.17,13.17,0,0,1,9.72,16.8,3.79,3.79,0,0,0,0,2.26A13.18,13.18,0,0,1,79,95.54a6.48,6.48,0,0,0-2.88,1.66A13.14,13.14,0,0,1,57.93,97a5.43,5.43,0,0,0-2.54-1.46c-5.91-1.58-9.91-6.81-9.88-13.52,1-2.49.14-5.66,0-8.86A13.05,13.05,0,0,1,55.63,60.18Z"/><path class="cls-2" d="M51.22,71.9c2.11-1,3-2.27,2.75-4.65-.17-1.84.66-3.63,1.46-5.39-6.14.89-10.24,9.19-8.11,14.07C48.42,74.3,49.55,72.69,51.22,71.9Z"/><path class="cls-5" d="M45.51,82.05c0,6.71,4,11.94,9.88,13.52A5.43,5.43,0,0,1,57.93,97a13.14,13.14,0,0,0,18.14.17A6.48,6.48,0,0,1,79,95.54a13.18,13.18,0,0,0,9.2-16.34,3.79,3.79,0,0,1,0-2.26,13.17,13.17,0,0,0-9.72-16.8,3.33,3.33,0,0,1-1.75-1,13.11,13.11,0,0,0-19.2,0,3.51,3.51,0,0,1-1.86,1,13.05,13.05,0,0,0-10.14,13C45.65,76.39,46.51,79.56,45.51,82.05Zm1.82-2a15,15,0,0,0,6.19,5.31.68.68,0,0,1,.43.77A14.21,14.21,0,0,0,55.47,94C50.49,93.46,45.14,86.24,47.33,80Zm.92-2.93A12.75,12.75,0,0,1,53.5,72c.71-.39.93-.12,1.12.54A18.08,18.08,0,0,1,55.41,78a17.67,17.67,0,0,1-.85,5.4c-.18.61-.42.83-1.07.48a12.23,12.23,0,0,1-5.25-5.07A1.57,1.57,0,0,1,48.25,77.09ZM57.08,94a13.59,13.59,0,0,1-1.93-5.88c0-2.12.16-2.29,1.84-1.81a17.82,17.82,0,0,1,8.34,5c.64.68.61,1-.18,1.56a13.17,13.17,0,0,1-6.49,1.93A1.64,1.64,0,0,1,57.08,94Zm-1.2-21.75c-.24-.78,0-1.06.71-1.23a18.65,18.65,0,0,0,9.9-5.8c.47-.52.81-.4,1.22.06a18.74,18.74,0,0,0,9.89,5.81c.76.18.94.45.7,1.22a18.88,18.88,0,0,0,0,11.21c0,.18.11.35.17.53.15.61-.35.69-.73.77a18.75,18.75,0,0,0-10.1,6c-.43.47-.7.39-1.08,0a18.44,18.44,0,0,0-10-5.9c-.71-.16-.93-.47-.68-1.25A18.79,18.79,0,0,0,55.88,72.21Zm3.28,23.94a14.41,14.41,0,0,0,7.63-2.82.47.47,0,0,1,.62,0,14.52,14.52,0,0,0,7.51,2.78C71.31,100.54,62.84,100.4,59.16,96.15Zm16-1.38a13,13,0,0,1-6.19-2c-.65-.44-.8-.73-.23-1.34a18,18,0,0,1,9.06-5.34c.9-.22,1.21.11,1.21.89a12.2,12.2,0,0,1-2.14,7.23C76.46,94.85,75.89,94.77,75.17,94.77Zm4.4-22.07c.09-.33.1-.76.64-.79a6.25,6.25,0,0,1,.72.31,12,12,0,0,1,5,4.91,1.64,1.64,0,0,1,0,1.79A12.1,12.1,0,0,1,80.7,83.8c-.64.33-.87.16-1.06-.47A17.76,17.76,0,0,1,79.57,72.7Zm-1,21.42c1-1.88,1.86-3.79,1.63-5.77C80,86,81,84.88,83,84c1.66-.78,2.75-2.33,3.94-4C88.81,85.63,84.4,93.09,78.6,94.12ZM79,61.93c.18-.25.5-.14.76-.07,5.05,1.39,9.06,8.76,7.45,13.72,0,.11-.14.21-.3.4a14,14,0,0,0-6.14-5.35.82.82,0,0,1-.49-1,12.69,12.69,0,0,0-1.18-7.08C79,62.36,78.86,62.05,79,61.93Zm-1.52.35A12.72,12.72,0,0,1,79,68.72c0,.89-.33,1.28-1.35,1a18.19,18.19,0,0,1-8.84-5.2c-.6-.64-.56-1,.17-1.46a12,12,0,0,1,6.5-1.94C76.35,60.94,77,61.43,77.43,62.28Zm-2.22-2.56a14,14,0,0,0-7.59,2.7.74.74,0,0,1-1,0,13.7,13.7,0,0,0-7.56-2.67C62.59,55.31,71,55.13,75.21,59.72Zm-18.08,2c.51-.79,1.27-.52,1.88-.58a11.59,11.59,0,0,1,6.26,2c.6.4.72.67.18,1.24a17.77,17.77,0,0,1-9.06,5.33c-.88.21-1.22-.15-1.22-.94A12.63,12.63,0,0,1,57.13,61.73Zm-1.7.13c-.8,1.76-1.63,3.55-1.46,5.39.24,2.38-.64,3.65-2.75,4.65-1.67.79-2.8,2.4-3.9,4C45.19,71.05,49.29,62.75,55.43,61.86Z"/><path class="cls-3" d="M67.11,40h-8L57,38.35c-5.31.33-8.86.93-8.86,1.61,0,1,8.5,1.9,19,1.9s19-.85,19-1.9c0-.7-3.69-1.3-9.19-1.64L74.8,40Z"/><path class="cls-3" d="M52.92,3.52,27.78,15.57,33,19.63A65.05,65.05,0,0,1,55.87,11.1Z"/><path class="cls-3" d="M66.37,38.05,55.87,11.1A65.05,65.05,0,0,0,33,19.63L57,38.35C59.74,38.17,62.93,38.07,66.37,38.05Z"/><path class="cls-3" d="M66.75,40l.18-.46-.56-1.45c-3.44,0-6.63.12-9.37.3L59.07,40Z"/><path class="cls-3" d="M106.08,15.57,81,3.52,78,11.1a65,65,0,0,1,22.88,8.53Z"/><path class="cls-3" d="M76.89,38.32l24-18.69A65,65,0,0,0,78,11.1L67.5,38.05C70.93,38.06,74.13,38.16,76.89,38.32Z"/><path class="cls-3" d="M66.93,39.5l.18.46H74.8l2.09-1.64c-2.76-.16-6-.26-9.39-.27Z"/><polygon class="cls-3" points="67.11 39.96 66.93 39.49 66.75 39.96 67.11 39.96"/><polygon class="cls-3" points="54.09 39.25 23.73 15.18 53.47 0 67.13 35.21 54.09 39.25"/><polygon class="cls-3" points="79.77 39.25 110.13 15.18 80.38 0 66.73 35.21 79.77 39.25"/><ellipse class="cls-3" cx="67.73" cy="39.93" rx="18.41" ry="2.94"/></g></g></svg>