<svg
    xmlns="http://www.w3.org/2000/svg"
    viewBox="0 0 24 24"
    id="vector">
    <path
        id="path"
        d="M 8.6 17.5 L 18.2 12 L 8.6 6.5 L 8.6 17.5 Z M 9.6 8.1 L 16.3 12 L 9.6 15.9 L 9.6 8.1 Z"
        fill="#000000"/>
    <path
        id="path_1"
        d="M 12 2 C 6.5 2 2 6.5 2 12 C 2 17.5 6.5 22 12 22 C 17.5 22 22 17.5 22 12 C 22 6.5 17.5 2 12 2 Z M 12 21 C 7 21 2.9 16.9 2.9 12 C 2.9 7.1 7 3 12 3 C 17 3 21 7.1 21 12 C 21 16.9 17 21 12 21 Z"
        fill="#000000"/>
</svg>
