<svg
    xmlns="http://www.w3.org/2000/svg"
    viewBox="0 0 48 48"
    id="vector">
    <path
        id="path"
        d="M 23.36 44 C 22.525 44.005 21.707 43.762 21.01 43.301 C 20.314 42.84 19.77 42.182 19.448 41.411 C 19.127 40.64 19.042 39.791 19.204 38.972 C 19.366 38.153 19.769 37.4 20.36 36.81 C 20.883 36.277 21.538 35.892 22.259 35.696 C 22.98 35.5 23.74 35.5 24.461 35.696 C 25.182 35.892 25.837 36.277 26.36 36.81 C 26.95 37.401 27.351 38.155 27.512 38.974 C 27.674 39.793 27.589 40.642 27.267 41.413 C 26.946 42.184 26.403 42.842 25.708 43.305 C 25.012 43.767 24.195 44.012 23.36 44.01 Z M 23.36 37.5 C 23.059 37.496 22.761 37.554 22.484 37.671 C 22.206 37.788 21.957 37.961 21.75 38.18 C 21.53 38.385 21.355 38.635 21.238 38.912 C 21.121 39.19 21.064 39.489 21.07 39.79 C 21.066 40.091 21.124 40.389 21.241 40.666 C 21.358 40.944 21.531 41.193 21.75 41.4 C 22.027 41.692 22.379 41.903 22.767 42.011 C 23.155 42.118 23.565 42.118 23.953 42.011 C 24.341 41.903 24.693 41.692 24.97 41.4 C 25.186 41.192 25.358 40.942 25.473 40.665 C 25.588 40.388 25.645 40.09 25.64 39.79 C 25.632 39.188 25.389 38.612 24.964 38.186 C 24.538 37.761 23.962 37.518 23.36 37.51 Z M 25.77 33.95 L 21 33.95 C 20.735 33.95 20.48 33.845 20.293 33.657 C 20.105 33.47 20 33.215 20 32.95 L 20 30 C 19.985 29.184 20.058 28.37 20.22 27.57 C 20.387 26.909 20.65 26.275 21 25.69 C 21.331 25.103 21.741 24.564 22.22 24.09 C 22.67 23.64 23.22 23.09 23.89 22.47 C 24.56 21.85 24.94 21.47 25.46 20.97 C 25.942 20.507 26.393 20.012 26.81 19.49 C 27.169 19.029 27.474 18.53 27.72 18 C 27.949 17.484 28.062 16.924 28.05 16.36 C 28.056 15.776 27.94 15.197 27.71 14.66 C 27.497 14.158 27.192 13.7 26.81 13.31 C 26.427 12.929 25.971 12.63 25.47 12.43 C 24.94 12.215 24.372 12.106 23.8 12.11 C 23.205 12.081 22.611 12.176 22.054 12.39 C 21.498 12.603 20.993 12.93 20.57 13.35 C 19.678 14.269 19.124 15.465 19 16.74 C 18.963 16.989 18.833 17.215 18.637 17.373 C 18.44 17.53 18.191 17.608 17.94 17.59 L 12.94 17.1 C 12.81 17.085 12.683 17.045 12.568 16.982 C 12.453 16.918 12.352 16.833 12.27 16.73 C 12.121 16.518 12.06 16.256 12.1 16 C 12.425 13.149 13.819 10.525 16 8.66 C 18.23 6.858 21.034 5.914 23.9 6 C 25.321 5.99 26.733 6.217 28.08 6.67 C 29.349 7.105 30.521 7.785 31.53 8.67 C 32.531 9.552 33.329 10.64 33.87 11.86 C 34.453 13.207 34.743 14.663 34.72 16.13 C 34.74 17.364 34.533 18.591 34.11 19.75 C 33.702 20.794 33.135 21.769 32.43 22.64 L 28.88 26.25 C 28.39 26.71 27.99 27.11 27.69 27.44 C 27.453 27.693 27.254 27.979 27.1 28.29 C 26.955 28.607 26.861 28.944 26.82 29.29 C 26.752 29.817 26.722 30.349 26.73 30.88 L 26.73 33 C 26.718 33.25 26.612 33.486 26.435 33.662 C 26.257 33.837 26.02 33.94 25.77 33.95 Z M 22 32 L 24.8 32 L 24.8 30.8 C 24.795 30.198 24.832 29.597 24.91 29 C 24.98 28.47 25.132 27.954 25.36 27.47 C 25.592 26.989 25.891 26.545 26.25 26.15 C 26.58 25.79 27.01 25.35 27.56 24.84 L 28.07 24.38 L 30.98 21.38 C 31.542 20.659 31.99 19.856 32.31 19 C 32.647 18.061 32.81 17.068 32.79 16.07 C 32.81 14.878 32.578 13.696 32.11 12.6 C 31.683 11.633 31.052 10.77 30.26 10.07 C 29.433 9.37 28.479 8.837 27.45 8.5 C 26.302 8.119 25.099 7.93 23.89 7.94 C 21.479 7.853 19.116 8.642 17.24 10.16 C 15.69 11.478 14.632 13.284 14.24 15.28 L 17.32 15.58 C 17.596 14.235 18.244 12.995 19.19 12 C 19.792 11.396 20.512 10.922 21.305 10.609 C 22.098 10.296 22.948 10.15 23.8 10.18 C 24.626 10.176 25.444 10.332 26.21 10.64 C 26.957 10.935 27.637 11.377 28.21 11.94 C 28.765 12.502 29.21 13.164 29.52 13.89 C 29.856 14.673 30.026 15.518 30.02 16.37 C 30.029 17.214 29.855 18.05 29.51 18.82 C 29.193 19.504 28.797 20.148 28.33 20.74 C 27.861 21.33 27.354 21.888 26.81 22.41 C 26.28 22.92 25.75 23.41 25.22 23.92 C 24.69 24.43 24 25 23.57 25.46 C 23.217 25.803 22.915 26.193 22.67 26.62 C 22.441 27.054 22.276 27.519 22.18 28 C 22.048 28.658 21.988 29.329 22 30 Z"
        fill="#000000"/>
</svg>
