<svg
    xmlns="http://www.w3.org/2000/svg"
    viewBox="0 0 24 24"
    id="vector">
    <path
        id="path"
        d="M 15.88 15.27 C 15.849 15.118 15.809 14.968 15.76 14.82 C 15.606 14.364 15.493 13.896 15.42 13.42 C 15.268 12.473 15.268 11.507 15.42 10.56 C 15.495 10.077 15.612 9.602 15.77 9.14 C 15.864 8.851 15.924 8.553 15.95 8.25 C 15.959 8.097 15.959 7.943 15.95 7.79 C 15.959 7.633 15.959 7.477 15.95 7.32 C 15.903 7.014 15.819 6.715 15.7 6.43 C 15.463 5.852 15.091 5.338 14.617 4.931 C 14.142 4.525 13.578 4.236 12.97 4.09 L 12.46 4 L 12 4 C 11.375 4.001 10.758 4.148 10.2 4.43 C 10.062 4.502 9.929 4.582 9.8 4.67 C 9.671 4.756 9.548 4.849 9.43 4.95 C 9.194 5.155 8.982 5.386 8.8 5.64 C 8.619 5.891 8.468 6.163 8.35 6.45 C 8.233 6.736 8.149 7.035 8.1 7.34 C 8.057 7.491 8.024 7.645 8 7.8 C 7.991 7.957 7.991 8.113 8 8.27 C 8.025 8.579 8.085 8.885 8.18 9.18 C 8.334 9.632 8.448 10.098 8.52 10.57 C 8.618 11.041 8.678 11.519 8.7 12 C 8.701 12.479 8.665 12.957 8.59 13.43 C 8.515 13.909 8.398 14.381 8.24 14.84 C 8.146 15.129 8.086 15.427 8.06 15.73 C 8.051 15.887 8.051 16.043 8.06 16.2 C 8.051 16.353 8.051 16.507 8.06 16.66 C 8.108 16.969 8.192 17.271 8.31 17.56 C 8.427 17.847 8.579 18.119 8.76 18.37 C 8.853 18.496 8.953 18.616 9.06 18.73 C 9.269 18.956 9.504 19.158 9.76 19.33 C 9.892 19.418 10.029 19.498 10.17 19.57 C 10.868 19.921 11.654 20.06 12.43 19.97 L 12.89 19.89 C 13.656 19.709 14.352 19.305 14.89 18.73 C 14.994 18.616 15.091 18.496 15.18 18.37 C 15.361 18.118 15.512 17.847 15.63 17.56 C 15.749 17.274 15.833 16.976 15.88 16.67 C 15.889 16.513 15.889 16.357 15.88 16.2 C 15.889 16.047 15.889 15.893 15.88 15.74 C 15.889 15.583 15.889 15.427 15.88 15.27 Z"
        fill="#000000"/>
    <path
        id="path_1"
        d="M 12 22 C 11.079 21.999 10.17 21.779 9.35 21.36 C 9.143 21.255 8.943 21.138 8.75 21.01 C 8.558 20.881 8.375 20.741 8.2 20.59 C 8.028 20.443 7.864 20.286 7.71 20.12 C 7.553 19.952 7.406 19.775 7.27 19.59 C 6.743 18.84 6.401 17.977 6.27 17.07 C 6.233 16.845 6.21 16.618 6.2 16.39 C 6.187 16.16 6.187 15.93 6.2 15.7 C 6.238 15.244 6.328 14.795 6.47 14.36 C 6.6 13.983 6.698 13.594 6.76 13.2 C 6.815 12.803 6.839 12.401 6.83 12 C 6.832 11.602 6.802 11.204 6.74 10.81 C 6.681 10.416 6.587 10.028 6.46 9.65 C 6.314 9.212 6.22 8.759 6.18 8.3 C 6.167 8.07 6.167 7.84 6.18 7.61 C 6.189 7.379 6.213 7.148 6.25 6.92 C 6.38 6.013 6.723 5.15 7.25 4.4 C 7.386 4.215 7.533 4.038 7.69 3.87 C 7.844 3.701 8.007 3.54 8.18 3.39 C 8.362 3.249 8.552 3.118 8.75 3 C 8.94 2.872 9.137 2.755 9.34 2.65 C 10.364 2.107 11.527 1.881 12.68 2 C 12.909 2.026 13.136 2.066 13.36 2.12 C 14.481 2.389 15.497 2.984 16.28 3.83 C 16.437 3.998 16.584 4.175 16.72 4.36 C 16.99 4.732 17.215 5.135 17.39 5.56 C 17.565 5.984 17.69 6.427 17.76 6.88 C 17.797 7.108 17.82 7.339 17.83 7.57 C 17.844 7.8 17.844 8.03 17.83 8.26 C 17.793 8.719 17.703 9.172 17.56 9.61 C 17.429 9.991 17.332 10.382 17.27 10.78 C 17.144 11.568 17.144 12.372 17.27 13.16 C 17.329 13.554 17.423 13.942 17.55 14.32 L 17.55 14.32 C 17.692 14.755 17.782 15.204 17.82 15.66 C 17.834 15.89 17.834 16.12 17.82 16.35 C 17.81 16.581 17.787 16.812 17.75 17.04 C 17.68 17.493 17.555 17.936 17.38 18.36 C 17.205 18.785 16.98 19.188 16.71 19.56 C 16.574 19.745 16.427 19.922 16.27 20.09 C 16.113 20.26 15.946 20.42 15.77 20.57 C 14.907 21.341 13.835 21.838 12.69 22 C 12.46 22.014 12.23 22.014 12 22 Z M 12 2.84 C 11.605 2.847 11.212 2.901 10.83 3 C 10.256 3.14 9.71 3.38 9.22 3.71 C 9.058 3.798 8.901 3.895 8.75 4 C 8.602 4.128 8.462 4.265 8.33 4.41 C 7.928 4.843 7.607 5.344 7.38 5.89 C 7.229 6.253 7.122 6.632 7.06 7.02 C 7.027 7.225 7.007 7.432 7 7.64 C 6.989 7.837 6.989 8.033 7 8.23 C 7.031 8.621 7.108 9.007 7.23 9.38 C 7.374 9.8 7.482 10.231 7.55 10.67 C 7.625 11.109 7.666 11.554 7.67 12 C 7.669 12.446 7.632 12.89 7.56 13.33 C 7.492 13.772 7.385 14.207 7.24 14.63 C 7.116 14.999 7.035 15.382 7 15.77 C 6.989 15.967 6.989 16.163 7 16.36 C 7.008 16.554 7.029 16.748 7.06 16.94 C 7.122 17.328 7.229 17.707 7.38 18.07 C 7.53 18.424 7.722 18.76 7.95 19.07 C 8.067 19.231 8.194 19.384 8.33 19.53 C 8.596 19.817 8.895 20.072 9.22 20.29 C 9.384 20.4 9.554 20.5 9.73 20.59 C 10.791 21.132 12.011 21.278 13.17 21 C 14.131 20.769 15.003 20.258 15.674 19.532 C 16.345 18.806 16.785 17.897 16.94 16.92 C 16.972 16.725 16.992 16.528 17 16.33 C 17.012 16.134 17.012 15.936 17 15.74 C 16.969 15.349 16.892 14.963 16.77 14.59 C 16.626 14.17 16.519 13.738 16.45 13.3 C 16.31 12.422 16.31 11.528 16.45 10.65 C 16.518 10.208 16.625 9.773 16.77 9.35 C 16.889 8.987 16.966 8.611 17 8.23 C 17.012 8.034 17.012 7.836 17 7.64 C 16.991 7.442 16.971 7.245 16.94 7.05 C 16.879 6.662 16.771 6.283 16.62 5.92 C 16.325 5.182 15.858 4.524 15.258 4.003 C 14.658 3.481 13.942 3.11 13.17 2.92 C 12.979 2.875 12.785 2.842 12.59 2.82 C 12.393 2.815 12.196 2.822 12 2.84 Z"
        fill="#000000"/>
</svg>
