<svg width="15" height="17" viewBox="0 0 15 17" fill="none" xmlns="http://www.w3.org/2000/svg">
<path d="M5.90625 0.673828V1.92383H9.65625V0.673828H5.90625ZM7.78125 2.54883C3.99219 2.54883 0.90625 5.63477 0.90625 9.42383C0.90625 13.2129 3.99219 16.2988 7.78125 16.2988C11.5703 16.2988 14.6562 13.2129 14.6562 9.42383C14.6562 7.6001 13.9458 5.93018 12.7812 4.69727L13.8555 3.62305L12.957 2.72461L11.8242 3.85742C10.6914 3.03223 9.2876 2.54883 7.78125 2.54883ZM7.78125 3.79883C10.894 3.79883 13.4062 6.31103 13.4062 9.42383C13.4062 12.5366 10.894 15.0488 7.78125 15.0488C4.66846 15.0488 2.15625 12.5366 2.15625 9.42383C2.15625 6.31103 4.66846 3.79883 7.78125 3.79883ZM7.15625 5.04883V8.34961C6.78271 8.56689 6.53125 8.9624 6.53125 9.42383C6.53125 9.88525 6.78271 10.2808 7.15625 10.498V11.2988H8.40625V10.498C8.77979 10.2808 9.03125 9.88525 9.03125 9.42383C9.03125 8.9624 8.77979 8.56689 8.40625 8.34961V5.04883H7.15625Z" fill="#242A38"/>
</svg>
