<svg viewBox="0 0 24 24" fill="none" xmlns="http://www.w3.org/2000/svg">
<path d="M23.3009 12.2128C23.3009 15.1974 22.1152 18.0597 20.0048 20.1701C17.8944 22.2805 15.0321 23.4661 12.0475 23.4661C9.06296 23.4661 6.20063 22.2805 4.09022 20.1701C1.97981 18.0597 0.794189 15.1974 0.794189 12.2128C0.794189 9.22824 1.97981 6.36591 4.09022 4.2555C6.20063 2.14509 9.06296 0.959473 12.0475 0.959473C15.0321 0.959473 17.8944 2.14509 20.0048 4.2555C22.1152 6.36591 23.3009 9.22824 23.3009 12.2128V12.2128ZM10.3455 8.12363C10.2403 8.04875 10.1165 8.00426 9.98777 7.99504C9.859 7.98582 9.73018 8.01221 9.61541 8.07134C9.50065 8.13047 9.40437 8.22004 9.33713 8.33025C9.26988 8.44045 9.23427 8.56704 9.23419 8.69614V15.7295C9.23427 15.8586 9.26988 15.9852 9.33713 16.0954C9.40437 16.2056 9.50065 16.2952 9.61541 16.3543C9.73018 16.4134 9.859 16.4398 9.98777 16.4306C10.1165 16.4214 10.2403 16.3769 10.3455 16.302L15.2688 12.7853C15.36 12.7203 15.4343 12.6344 15.4856 12.5348C15.5368 12.4352 15.5636 12.3248 15.5636 12.2128C15.5636 12.1008 15.5368 11.9904 15.4856 11.8908C15.4343 11.7913 15.36 11.7054 15.2688 11.6403L10.3455 8.12363V8.12363Z" fill="black"/>
</svg>
